<svg xmlns="http://www.w3.org/2000/svg" width="512" height="512" viewBox="0 0 512 512" role="img" aria-label="Locora">
  <defs>
    <linearGradient id="bg" x1="0" y1="0" x2="1" y2="1">
      <stop offset="0%" stop-color="#151311"/>
      <stop offset="100%" stop-color="#2a2520"/>
    </linearGradient>
    <linearGradient id="door" x1="0" y1="0" x2="1" y2="1">
      <stop offset="0%" stop-color="#f5c04a"/>
      <stop offset="45%" stop-color="#f0a53a"/>
      <stop offset="100%" stop-color="#e86b5a"/>
    </linearGradient>
    <linearGradient id="signal" x1="0" y1="0" x2="1" y2="1">
      <stop offset="0%" stop-color="#3db8ba"/>
      <stop offset="100%" stop-color="#f5c04a"/>
    </linearGradient>
  </defs>
  <rect width="512" height="512" rx="96" fill="url(#bg)"/>
  <g transform="translate(96,70) scale(6.2)">
    <path d="M10 50 V14 C10 8.5 14.5 4 20 4 H28 C33.5 4 38 8.5 38 14 V50 H32 V16 C32 13.8 30.2 12 28 12 H20 C17.8 12 16 13.8 16 16 V50 Z" fill="url(#door)"/>
    <path d="M18 48 V18 C18 16.9 18.9 16 20 16 H28 C29.1 16 30 16.9 30 18 V48 Z" fill="#1f1b17" opacity="0.85"/>
    <g stroke="#3db8ba" stroke-width="0.7" stroke-linecap="round" opacity="0.8">
      <path d="M20.5 22 H27.5"/><path d="M20.5 26.5 H27.5"/><path d="M20.5 31 H27.5"/><path d="M20.5 35.5 H27.5"/><path d="M20.5 40 H27.5"/>
      <path d="M23 20 V46"/><path d="M25.5 20 V46"/>
    </g>
    <g stroke="url(#signal)" stroke-width="1.4" stroke-linecap="round" fill="none">
      <path d="M40 18 A10 10 0 0 1 40 34"/>
      <path d="M43 14 A15 15 0 0 1 43 38"/>
      <path d="M46 10 A20 20 0 0 1 46 42"/>
    </g>
    <circle cx="35.5" cy="26" r="2.2" fill="#3db8ba" stroke="#f5c04a" stroke-width="0.7"/>
  </g>
</svg>
